HIERARCHY
ROOT SpineBase
{
  OFFSET 0.000000 0.000000 0.000000
  CHANNELS 6 Xposition Yposition Zposition Zrotation Xrotation Yrotation
  JOINT SpineMid
  {
    OFFSET 0.000000 35.584900 -0.000000
    CHANNELS 3 Zrotation Xrotation Yrotation
    JOINT SpineShoulder
    {
      OFFSET 0.269356 26.336166 -0.999288
      CHANNELS 3 Zrotation Xrotation Yrotation
      JOINT Neck
      {
        OFFSET 0.191036 8.676768 -0.717677
        CHANNELS 3 Zrotation Xrotation Yrotation
        JOINT Head
        {
          OFFSET -0.978038 11.640768 4.793549
          CHANNELS 3 Zrotation Xrotation Yrotation
          End Site
          {
            OFFSET 0 0 0
          }
        }
      }
      JOINT ShoulderLeft
      {
        OFFSET -14.297082 -5.812247 -2.411448
        CHANNELS 3 Zrotation Xrotation Yrotation
        JOINT ElbowLeft
        {
          OFFSET -8.168124 -22.764797 8.505253
          CHANNELS 3 Zrotation Xrotation Yrotation
          JOINT WristLeft
          {
            OFFSET 9.123337 -17.439264 -19.240362
            CHANNELS 3 Zrotation Xrotation Yrotation
            JOINT HandLeft
            {
              OFFSET 1.605909 -6.673416 3.172278
              CHANNELS 3 Zrotation Xrotation Yrotation
              JOINT HandTipLeft
              {
                OFFSET 2.423668 -6.810071 -1.885700
                CHANNELS 3 Zrotation Xrotation Yrotation
                End Site
                {
                  OFFSET 0 0 0
                }
              }
              JOINT ThumbLeft
              {
                OFFSET 5.519147 4.471950 -4.378683
                CHANNELS 3 Zrotation Xrotation Yrotation
                End Site
                {
                  OFFSET 0 0 0
                }
              }
            }
          }
        }
      }
      JOINT ShoulderRight
      {
        OFFSET 15.583074 -7.451542 -8.655072
        CHANNELS 3 Zrotation Xrotation Yrotation
        JOINT ElbowRight
        {
          OFFSET 7.481938 -25.380129 2.016659
          CHANNELS 3 Zrotation Xrotation Yrotation
          JOINT WristRight
          {
            OFFSET -0.828341 -20.405168 11.228588
            CHANNELS 3 Zrotation Xrotation Yrotation
            JOINT HandRight
            {
              OFFSET -0.715031 -4.368967 0.440715
              CHANNELS 3 Zrotation Xrotation Yrotation
              JOINT HandTipRight
              {
                OFFSET 0.666792 -4.560551 1.008190
                CHANNELS 3 Zrotation Xrotation Yrotation
                End Site
                {
                  OFFSET 0 0 0
                }
              }
              JOINT ThumbRight
              {
                OFFSET 1.248087 2.814891 -1.477341
                CHANNELS 3 Zrotation Xrotation Yrotation
                End Site
                {
                  OFFSET 0 0 0
                }
              }
            }
          }
        }
      }
    }
  }
  JOINT HipLeft
  {
    OFFSET -5.665596 1.239540 -2.356638
    CHANNELS 3 Zrotation Xrotation Yrotation
    JOINT KneeLeft
    {
      OFFSET -3.960260 -37.562560 0.281443
      CHANNELS 3 Zrotation Xrotation Yrotation
      JOINT AnkleLeft
      {
        OFFSET 0.502506 -29.082426 1.118686
        CHANNELS 3 Zrotation Xrotation Yrotation
        JOINT FootLeft
        {
          OFFSET -1.783584 -1.937765 -14.747035
          CHANNELS 3 Zrotation Xrotation Yrotation
          End Site
          {
            OFFSET 0 0 0
          }
        }
      }
    }
  }
  JOINT HipRight
  {
    OFFSET 7.608956 1.701015 -5.231652
    CHANNELS 3 Zrotation Xrotation Yrotation
    JOINT KneeRight
    {
      OFFSET 1.135014 -36.784404 -2.311193
      CHANNELS 3 Zrotation Xrotation Yrotation
      JOINT AnkleRight
      {
        OFFSET 1.859016 -28.665610 -1.020986
        CHANNELS 3 Zrotation Xrotation Yrotation
        JOINT FootRight
        {
          OFFSET -2.255332 -2.173163 -15.810304
          CHANNELS 3 Zrotation Xrotation Yrotation
          End Site
          {
            OFFSET 0 0 0
          }
        }
      }
    }
  }
}
MOTION
Frames: 12
Frame Time: 0.033333
-60.617521 73.290329 234.631459 0.000000 -0.000000 12.220430 0.000000 0.000000 -12.220430 -0.000000 0.000000 0.000000 -0.000000 0.000000 0.000000 0.000000 0.000000 0.000000 -0.000000 0.000000 0.000000 -0.000000 0.000000 0.000000 -0.000000 0.000000 0.000000 -0.000000 0.000000 0.000000 0.000000 0.000000 0.000000 0.000000 0.000000 0.000000 -0.000000 0.000000 0.000000 -0.000000 0.000000 0.000000 -0.000000 0.000000 0.000000 -0.000000 0.000000 0.000000 0.000000 0.000000 0.000000 0.000000 0.000000 0.000000 0.000000 0.000000 -12.220430 -0.000000 0.000000 0.000000 -0.000000 0.000000 0.000000 0.000000 0.000000 0.000000 0.000000 0.000000 -12.220430 -0.000000 0.000000 0.000000 -0.000000 0.000000 0.000000 0.000000 0.000000 0.000000
-60.591381 73.274997 234.540474 0.007864 0.014141 12.443265 -0.010726 -0.012114 -12.443267 -0.000000 0.000000 0.000000 -0.000000 0.000000 0.000000 0.000000 0.000000 0.000000 -0.000000 0.000000 0.000000 -0.000000 0.000000 0.000000 0.169162 0.787684 0.269588 -1.249588 -2.031154 -0.447758 0.000000 0.000000 0.000000 0.000000 0.000000 0.000000 -0.948620 -0.252859 -0.152357 0.947954 0.255346 0.148152 2.206374 1.490725 -0.050327 -3.110351 1.354319 0.209310 0.000000 0.000000 0.000000 0.000000 0.000000 0.000000 -0.010726 -0.012114 -12.443267 -0.000000 0.000000 0.000000 0.818552 -4.276819 -3.186503 0.000000 0.000000 0.000000 -0.010726 -0.012114 -12.443267 -0.000000 0.000000 0.000000 1.466897 -8.266420 -4.277438 0.000000 0.000000 0.000000
-60.568610 73.263347 234.452016 0.013190 0.032397 12.631685 -0.019955 -0.028729 -12.631693 -0.000000 0.000000 0.000000 -0.000000 0.000000 0.000000 0.000000 0.000000 0.000000 -0.000000 0.000000 0.000000 -0.000000 0.000000 0.000000 0.178100 1.170704 0.366214 -1.892637 -3.197602 -0.695252 0.000000 0.000000 0.000000 0.000000 0.000000 0.000000 -1.759151 -0.468339 -0.286247 2.976337 0.989312 0.909764 2.940388 2.209468 -0.754815 -5.845745 2.722893 0.360024 0.000000 0.000000 0.000000 0.000000 0.000000 0.000000 -0.019955 -0.028729 -12.631693 -0.000000 0.000000 0.000000 1.379380 -8.411934 -6.144388 0.000000 0.000000 0.000000 -0.019955 -0.028729 -12.631693 -0.000000 0.000000 0.000000 2.568300 -22.060280 -11.277522 0.000000 0.000000 0.000000
-60.549208 73.255378 234.366085 0.015979 0.054766 12.785936 -0.027703 -0.049871 -12.785956 -0.000000 0.000000 0.000000 -0.000000 0.000000 0.000000 0.000000 0.000000 0.000000 -0.000000 0.000000 0.000000 -0.000000 0.000000 0.000000 0.031622 1.154330 0.293891 -1.953714 -3.556605 -0.710002 0.000000 0.000000 0.000000 0.000000 0.000000 0.000000 -2.430328 -0.647091 -0.399946 4.113260 1.436526 1.245204 4.120025 2.930992 -1.061569 -8.133828 4.013191 0.470051 0.000000 0.000000 0.000000 0.000000 0.000000 0.000000 -0.027703 -0.049871 -12.785956 -0.000000 0.000000 0.000000 1.690610 -11.988311 -8.603160 0.000000 0.000000 0.000000 -0.027703 -0.049871 -12.785956 -0.000000 0.000000 0.000000 0.367056 -42.611146 -23.490050 0.000000 0.000000 0.000000
-60.533175 73.251091 234.282681 0.016236 0.081244 12.906219 -0.033972 -0.075565 -12.906253 -0.000000 0.000000 0.000000 -0.000000 0.000000 0.000000 0.000000 0.000000 0.000000 -0.000000 0.000000 0.000000 0.580949 0.730043 -0.260209 -0.577675 -0.732636 0.252814 -1.724290 -2.399668 -0.417435 0.000000 0.000000 0.000000 0.000000 0.000000 0.000000 -2.961317 -0.789746 -0.492061 5.026301 1.850629 1.511271 5.058985 3.385780 -1.303136 -9.913593 5.126720 0.551142 0.000000 0.000000 0.000000 0.000000 0.000000 0.000000 -0.033972 -0.075565 -12.906253 -0.000000 0.000000 0.000000 1.820600 -14.614394 -10.298196 0.000000 0.000000 0.000000 -0.033972 -0.075565 -12.906253 -0.000000 0.000000 0.000000 -13.817862 -62.978778 -46.849999 0.000000 0.000000 0.000000
-60.520511 73.250485 234.201804 0.013961 0.111829 12.992684 -0.038746 -0.105827 -12.992734 -0.000000 0.000000 0.000000 -0.000000 0.000000 0.000000 0.000000 0.000000 0.000000 -0.000000 0.000000 0.000000 0.846321 1.135526 -0.342986 -1.567014 -1.197649 -0.047684 -0.436446 -1.968158 -0.056970 0.000000 0.000000 0.000000 0.000000 0.000000 0.000000 -3.351591 -0.896868 -0.561514 5.721291 2.231520 1.713724 5.732992 3.569514 -1.469768 -11.135752 5.968608 0.608788 0.000000 0.000000 0.000000 0.000000 0.000000 0.000000 -0.038746 -0.105827 -12.992734 -0.000000 0.000000 0.000000 1.859340 -16.005614 -11.024587 0.000000 0.000000 0.000000 -0.038746 -0.105827 -12.992734 -0.388596 -0.796881 -0.040561 -45.016797 -71.733916 -84.438731 0.000000 0.000000 0.000000
-60.511639 73.260949 234.114768 0.005846 0.151513 13.042688 -0.039888 -0.146285 -13.042747 -0.000000 0.000000 0.000000 -0.000000 0.000000 0.000000 0.000000 0.000000 0.000000 1.009233 0.391145 0.234322 0.172038 1.273147 -0.667538 -2.505475 -2.846342 -0.571881 1.118944 0.154516 0.604071 0.000000 0.000000 0.000000 0.000000 0.000000 0.000000 -3.615507 -1.024844 -0.627235 6.226341 2.828931 1.865510 5.079114 5.121014 -2.054821 -8.882058 -0.129766 0.566439 0.000000 0.000000 0.000000 0.000000 0.000000 0.000000 -0.039888 -0.146285 -13.042747 -0.000000 0.000000 0.000000 1.888487 -16.915744 -10.807022 0.000000 0.000000 0.000000 -0.039888 -0.146285 -13.042747 -0.509087 -0.785777 -0.036338 -74.325948 -71.396138 -118.060812 0.000000 0.000000 0.000000
-60.511285 73.270316 234.035926 -0.003408 0.191039 13.009657 -0.039685 -0.186903 -13.009716 -0.000000 0.000000 0.000000 -0.263742 0.822026 0.179070 0.000000 0.000000 0.000000 1.666049 1.029579 0.240164 0.815150 2.494370 -1.141829 -6.853528 -10.891735 -3.596513 7.079544 9.198846 2.741225 0.000000 0.000000 0.000000 0.000000 0.000000 0.000000 -3.676614 -1.053497 -0.642226 6.421411 3.141274 1.931389 5.454916 4.393364 -1.946761 -9.271546 -0.973229 0.282432 0.000000 0.000000 0.000000 0.000000 0.000000 0.000000 -0.039685 -0.186903 -13.009716 -0.000000 0.000000 0.000000 1.878940 -15.971948 -9.164509 0.000000 0.000000 0.000000 -0.039685 -0.186903 -13.009716 -0.536185 -0.866041 -0.041144 -78.327189 -70.426309 -123.312588 0.000000 0.000000 0.000000
-60.513133 73.276776 233.963594 -0.015872 0.233486 12.987670 -0.037008 -0.231081 -12.987713 -0.000000 0.000000 0.000000 -0.437172 1.202033 0.284468 0.000000 0.000000 0.000000 2.129687 1.539620 0.217237 0.534233 2.436429 -1.098660 -7.336900 -11.958541 -4.022189 8.412454 11.079480 2.804659 0.000000 0.000000 0.000000 0.000000 0.000000 0.000000 -3.575336 -1.010517 -0.618880 6.284985 3.174365 1.891616 7.039454 3.258244 -1.520044 -11.197698 2.356892 0.238307 0.000000 0.000000 0.000000 0.000000 0.000000 0.000000 -0.037008 -0.231081 -12.987713 0.118313 0.844981 0.018284 1.537420 -13.691387 -4.106602 0.000000 0.000000 0.000000 -0.037008 -0.231081 -12.987713 -0.524425 -0.845932 -0.040077 -79.216163 -70.492008 -124.081597 0.000000 0.000000 0.000000
-60.508911 73.282208 233.897189 -0.022355 0.283172 12.950360 -0.041675 -0.280979 -12.950407 -0.000000 0.000000 0.000000 -0.652589 1.665000 0.415825 0.000000 0.000000 0.000000 2.561807 2.060148 0.174519 -0.526994 1.179131 -0.773808 -5.494539 -8.352075 -2.737676 6.928509 7.866108 2.118981 0.000000 0.000000 0.000000 0.000000 0.000000 0.000000 -3.424274 -0.922857 -0.576520 6.139758 3.151067 1.859597 7.577903 0.603978 -0.784873 -12.629344 9.482607 0.603764 0.000000 0.000000 0.000000 0.000000 0.000000 0.000000 -0.041675 -0.280979 -12.950407 -0.000000 0.000000 0.000000 1.307957 -9.406743 -3.216404 0.000000 0.000000 0.000000 -0.041675 -0.280979 -12.950407 -0.476499 -0.833125 -0.040545 -75.970859 -71.365454 -119.695235 0.000000 0.000000 0.000000
-60.496781 73.280406 233.836460 -0.023731 0.342984 12.955684 -0.053769 -0.339573 -12.955772 -0.000000 0.000000 0.000000 -0.867598 2.137571 0.549203 0.000000 0.000000 0.000000 2.523394 2.144673 0.127985 -2.189008 -1.304681 -0.149198 -0.985149 1.396562 0.168041 2.035578 -1.215917 -0.197744 0.000000 0.000000 0.000000 0.000000 0.000000 0.000000 -3.285327 -0.805902 -0.525958 6.156688 3.217533 1.893392 6.836440 -2.340509 -0.205071 -13.483071 17.094714 1.294748 0.000000 0.000000 0.000000 0.000000 0.000000 0.000000 -0.053769 -0.339573 -12.955772 -0.000000 0.000000 0.000000 1.369796 -7.862413 -6.607848 0.000000 0.000000 0.000000 -0.053769 -0.339573 -12.955772 -0.405054 -0.846109 -0.043458 -46.134364 -71.785405 -85.767918 0.000000 0.000000 0.000000
-60.477876 73.274713 233.784562 -0.022868 0.403398 13.008555 -0.068523 -0.398193 -13.008713 -0.000000 0.000000 0.000000 -1.103060 2.648903 0.696268 0.000000 0.000000 0.000000 2.585322 2.257934 0.106504 -4.500158 -4.750311 0.478622 5.368225 14.356095 3.243999 -6.463094 -13.740429 -5.786237 0.000000 0.000000 0.000000 0.000000 0.000000 0.000000 -3.125096 -0.698043 -0.476801 6.130076 3.276494 1.916891 5.819577 -5.089597 0.254790 -10.749107 16.101694 0.753605 0.000000 0.000000 0.000000 0.000000 0.000000 0.000000 -0.068523 -0.398193 -13.008713 -0.000000 0.000000 0.000000 0.954576 -3.518386 -5.263977 0.000000 0.000000 0.000000 -0.068523 -0.398193 -13.008713 -0.324639 -0.886967 -0.048495 -9.612000 -59.820003 -41.424664 0.000000 0.000000 0.000000
